# xmcd CD database file generated by freedbAccess_ocx
#
# Track frame offsets:
#       150
#       16860
#       27198
#       41658
#       58620
#       73865
#       87926
#       102614
#       116911
#       134473
#       146899
#       160049
#       177518
#       191532
#
# Disc length: 2875 seconds
#
# Revision: 0
# Processed by: cddbd v1.5PL3 Copyright (c) Steve Scherf et al.
# Submitted via: CDnGo 2.00
#
DISCID=cc0b390e
DTITLE=Various Artist - 46 Festa do Peão de Boiadeiro
DYEAR=2001
DGENRE=Country
TTITLE0=Daniel - Não empurra não
TTITLE1=Teodoro and Sampaio - Quem tem... tem medo
TTITLE2=Cezar and Paulinho - Tchaca tchaca na butchaca
TTITLE3=Gian and Giovani - Gol de coração
TTITLE4=Rick and Renner - Sofro e choro
TTITLE5=Fred and Pedrito - Mocinhas da cidade
TTITLE6=Milionário and José Rico - Denguinho
TTITLE7=Guilherme and Gustavo - Abre a janela
TTITLE8=Gino and Geno - Lorota
TTITLE9=Maurício and Marcelo - A saudade vai
TTITLE10=Tião Carreiro and Pardinho - Raízes do amor
TTITLE11=Roby and Roger - Tô facim
TTITLE12=João Pedro and Cristiano - Pé direito pé esquerdo
TTITLE13=Ataíde and Alexandre - Café no bule
EXTD=
EXTT0=
EXTT1=
EXTT2=
EXTT3=
EXTT4=
EXTT5=
EXTT6=
EXTT7=
EXTT8=
EXTT9=
EXTT10=
EXTT11=
EXTT12=
EXTT13=
PLAYORDER=
